<svg version="1.1" id="Layer_1" xmlns="http://www.w3.org/2000/svg" xmlns:xlink="http://www.w3.org/1999/xlink" x="0px" y="0px"
	 width="100%" viewBox="0 0 1024 1024" enable-background="new 0 0 1024 1024" xml:space="preserve">
<path fill="#000000" opacity="1.000000" stroke="none" 
	d="
M1025.000000,478.000000 
	C1025.000000,501.354218 1025.000000,524.708435 1024.975098,548.932373 
	C1023.171997,556.609619 1023.211853,563.653137 1022.502625,570.577332 
	C1018.823059,606.499756 1010.969910,641.526489 999.591003,675.705383 
	C976.135254,746.159424 938.781067,808.519470 888.057678,862.680664 
	C830.523987,924.113831 761.974548,968.979492 682.496094,996.887634 
	C645.298401,1009.949158 607.109558,1018.769348 567.792908,1022.431946 
	C559.190186,1023.233276 550.597351,1024.141113 542.000000,1025.000000 
	C522.979126,1025.000000 503.958221,1025.000000 484.083313,1024.863647 
	C481.746552,1024.538086 480.268768,1024.249512 478.780273,1024.174194 
	C452.128723,1022.827209 425.817719,1018.907349 399.832581,1013.022400 
	C337.612518,998.931274 279.913055,974.187988 227.019836,938.467407 
	C142.736130,881.547668 80.781364,806.111816 40.767212,712.690125 
	C23.250101,671.792603 11.553623,629.195984 5.373970,585.130920 
	C3.597738,572.465210 2.440850,559.712708 0.999998,547.000000 
	C1.000000,510.979095 1.000000,474.958221 1.166700,438.844177 
	C2.509703,445.833466 1.383527,453.016602 2.256418,461.608948 
	C2.916357,457.945923 3.433813,455.735535 3.700323,453.495270 
	C7.741392,419.526703 14.975692,386.265930 25.653658,353.757355 
	C45.306377,293.925507 74.622910,239.237000 114.445961,190.496063 
	C179.161575,111.288193 260.240143,55.672935 357.797791,24.444160 
	C387.327759,14.991439 417.417023,7.939596 448.295685,4.555158 
	C459.196045,3.360431 470.098511,2.184507 481.000000,0.999999 
	C501.687561,1.000000 522.375122,1.000000 543.917969,1.123497 
	C568.171936,3.023289 591.414185,5.846357 614.448669,10.499994 
	C709.431274,29.689278 792.322754,72.583122 863.206604,138.349991 
	C924.434265,195.157669 968.386353,263.568054 996.408875,342.205872 
	C1007.888855,374.421356 1015.809814,407.506195 1020.595886,441.394073 
	C1022.316589,453.577026 1022.941956,465.871613 1025.000000,478.000000 
M914.306030,241.278992 
	C930.530396,267.816162 943.675232,295.859863 953.921448,325.168030 
	C962.213257,348.885803 968.917480,373.104980 971.956909,398.170044 
	C972.453796,402.268005 972.778015,406.386932 973.250244,411.190460 
	C970.992126,409.612701 970.981445,408.061920 970.578918,406.652008 
	C962.687012,379.008759 955.112976,351.377075 943.173828,324.957581 
	C921.619812,277.261780 895.304199,232.763992 860.775024,193.317444 
	C809.714661,134.985367 748.867981,89.970428 677.642029,59.138676 
	C639.215698,42.504997 599.178528,31.509039 557.797668,25.528425 
	C542.179749,23.271229 526.507996,20.463133 510.702087,20.611845 
	C499.924164,20.713251 489.092987,21.226973 478.291931,22.143766 
	C452.372650,24.343800 426.771118,28.328033 401.501801,34.424988 
	C369.653961,42.109200 338.734680,52.630199 309.718536,67.859497 
	C281.072266,82.894646 252.477844,97.906281 229.207596,121.555664 
	C216.892014,134.071899 203.220886,145.396942 190.760696,157.915985 
	C172.859528,175.901718 156.063583,194.868240 141.190979,215.406067 
	C90.913658,284.834869 60.587925,362.518097 46.183743,446.729462 
	C45.419338,451.198456 45.561943,456.024170 42.708332,461.083771 
	C39.341278,433.763397 49.102936,409.046021 51.309643,383.407410 
	C49.669060,386.687775 48.381813,390.051025 47.309673,393.481506 
	C37.097290,426.157440 30.387625,459.561798 27.250618,493.633118 
	C24.856283,519.638184 23.069370,545.592224 26.020969,571.817627 
	C30.404018,610.761536 39.071003,648.574097 53.046398,685.106445 
	C73.968636,739.798157 104.154015,789.010193 142.175980,833.490234 
	C154.521484,847.932556 168.369324,860.834351 182.260529,873.733521 
	C111.453697,801.074341 66.767281,715.624023 53.532803,613.865845 
	C56.246181,614.580200 56.113674,616.092529 56.472092,617.313721 
	C64.334602,644.102356 71.315742,671.107666 83.065186,696.690308 
	C91.469543,714.989441 99.117653,733.538818 108.991302,751.214050 
	C127.237076,783.876526 149.031662,813.886902 174.598572,840.976807 
	C236.928177,907.019104 311.549377,953.865601 398.149841,981.416504 
	C439.811646,994.670776 482.548187,1001.976013 526.259827,1002.462036 
	C550.239502,1002.728699 574.074097,1000.015381 597.730652,995.783386 
	C655.788147,985.397339 709.194214,963.693237 758.088379,930.739929 
	C786.107056,911.856140 811.335327,889.709229 835.107727,865.795593 
	C852.528320,848.271362 868.769836,829.728088 883.434509,809.854919 
	C917.042053,764.310791 942.626221,714.565552 960.581726,660.907288 
	C970.371216,631.652222 977.276306,601.704895 982.054688,571.224243 
	C982.971313,565.376587 982.919556,559.169678 985.727539,553.679260 
	C989.275146,587.036987 978.102722,618.345947 972.718079,650.461487 
	C980.206055,629.639099 987.055908,608.661804 991.391541,586.899048 
	C998.587280,550.779724 1004.606567,514.621521 1002.906616,477.518219 
	C1001.536865,447.623932 997.223694,418.241394 989.549194,389.385651 
	C964.556396,295.414276 916.008179,215.727188 843.919556,150.424866 
	C842.642212,149.267746 841.234070,148.255005 839.886963,147.174911 
	C867.643799,175.975418 892.950867,206.589508 914.306030,241.278992 
M952.204834,730.514954 
	C942.376038,749.974182 932.493042,769.404541 921.256836,788.115601 
	C958.379700,737.905579 988.372070,659.896545 989.736755,628.731079 
	C979.935608,663.827942 968.259583,697.585144 952.204834,730.514954 
M43.278881,364.636749 
	C41.600689,371.887817 39.922501,379.138916 38.244308,386.389984 
	C54.952263,330.939056 78.479866,278.663116 109.658699,229.843857 
	C79.782509,270.670227 57.535172,315.248077 43.278881,364.636749 
z"/>
<path fill="#000000" opacity="1.000000" stroke="none" 
	d="
M421.520996,496.449615 
	C447.279694,479.892792 475.599274,469.943298 503.749542,459.606384 
	C510.470520,457.138397 517.142883,454.536407 523.813721,451.934723 
	C525.457153,451.293732 527.325134,450.867218 528.095947,449.362885 
	C528.148682,447.958344 527.544006,447.312531 526.720459,447.109741 
	C515.208801,444.275024 503.683563,441.529907 491.882141,445.672699 
	C490.781952,446.058899 489.706696,446.530792 488.586121,446.841003 
	C486.635468,447.381042 484.547333,447.922180 483.039795,446.042236 
	C481.305725,443.879791 482.521332,441.851135 483.945557,440.183533 
	C491.322418,431.545929 500.739746,425.541473 510.594177,420.244354 
	C516.311890,417.170898 522.408447,414.847473 528.843018,413.586365 
	C532.354492,412.898193 535.381958,411.252960 538.149353,408.992371 
	C544.394165,403.891296 551.326050,399.924408 558.890869,397.158752 
	C561.862427,396.072388 564.064087,394.352966 565.765747,391.713654 
	C570.112671,384.971466 574.909058,378.572021 581.108276,373.384003 
	C583.513489,371.371155 584.097839,368.579193 584.469971,365.811371 
	C585.140381,360.825714 586.056335,355.821289 588.168457,351.348572 
	C591.301331,344.714081 590.972290,338.201050 589.446838,331.385315 
	C588.577759,327.502075 588.046265,323.527344 587.611694,319.566528 
	C586.965820,313.679962 584.672607,308.773529 581.499878,303.625031 
	C573.954834,291.381470 564.501282,282.142242 551.345520,275.875275 
	C544.876953,272.793823 539.063171,269.815033 531.709106,270.375031 
	C526.591919,270.764679 521.396362,270.627716 516.289001,269.500610 
	C513.201599,268.819305 510.379700,269.966705 507.676880,271.384766 
	C500.445740,275.178619 493.174561,278.889801 485.389099,281.451233 
	C482.674744,282.344238 480.877838,284.165680 479.668030,286.682190 
	C476.165314,293.968231 471.298706,300.292450 465.751801,306.104065 
	C463.443207,308.522888 462.315216,311.190491 462.251892,314.595795 
	C462.093353,323.120819 460.778625,331.514008 458.183685,339.645264 
	C457.132233,342.940063 456.875549,346.242432 457.559723,349.504730 
	C460.308655,362.611603 460.359161,375.592102 456.353302,388.473206 
	C455.629181,390.801697 456.104675,393.044464 456.814697,395.325104 
	C459.686218,404.549225 460.113495,413.945984 458.645996,423.468933 
	C458.279907,425.844604 458.118378,428.251831 458.655792,430.881195 
	C465.108490,421.700043 472.532532,413.057861 471.830658,400.814575 
	C470.946259,385.389099 471.525909,370.174927 477.827942,355.703217 
	C487.770325,332.872192 505.853180,319.457397 528.784119,311.712067 
	C536.358154,309.153717 544.102600,307.202118 552.026672,305.993622 
	C555.890686,305.404327 558.881165,306.289154 559.299561,310.617798 
	C562.459290,343.309296 555.593506,372.672821 529.717590,395.053009 
	C519.713135,403.705933 507.256592,408.072540 494.527496,411.040588 
	C486.683228,412.869629 481.486084,416.453064 477.909637,424.141327 
	C466.664398,448.315125 448.187897,466.492645 427.179688,482.302032 
	C423.813232,484.835388 421.024017,488.322327 416.273132,489.676544 
	C412.871094,474.157806 408.268982,459.218140 413.278625,443.650757 
	C414.878448,438.679352 414.660797,433.924408 413.282776,428.958252 
	C410.267944,418.092987 410.515228,407.212891 414.192932,396.530182 
	C415.227936,393.523834 415.284302,390.845367 414.144531,387.854736 
	C409.582794,375.885162 409.471527,363.721405 413.596527,351.658234 
	C415.281677,346.730194 414.102264,342.107941 413.374054,337.393219 
	C411.446716,324.914307 413.447479,313.143890 419.787811,302.252899 
	C422.504028,297.587097 424.474426,292.766815 425.712494,287.519592 
	C428.873840,274.120911 436.350647,263.574738 447.680664,255.841309 
	C451.566223,253.189194 455.033997,250.183868 458.260040,246.771347 
	C468.264404,236.188629 480.123322,229.445068 495.163727,229.612610 
	C498.438751,229.649078 501.297180,228.238068 504.188812,226.942719 
	C517.156921,221.133499 530.299377,220.694519 543.433472,226.152954 
	C548.643311,228.318115 554.169922,228.315765 559.524414,229.429214 
	C572.188721,232.062668 583.042175,237.635910 591.059082,248.069839 
	C592.934753,250.511063 595.549438,251.989883 598.098877,253.577087 
	C610.948242,261.576538 619.989014,272.429596 623.248657,287.521332 
	C623.690247,289.565887 624.772766,291.186310 625.885986,292.839478 
	C634.873840,306.186035 638.273499,320.624023 634.697144,336.538544 
	C634.200684,338.748016 634.306763,341.217621 634.678406,343.477234 
	C637.124451,358.349152 634.020447,371.942566 625.477905,384.287659 
	C623.372314,387.330444 621.665100,390.504333 620.386169,393.972870 
	C616.747864,403.840576 611.208008,412.473419 603.035217,419.193176 
	C600.074646,421.627350 600.149536,423.451660 602.824829,426.039948 
	C608.203857,431.244019 613.408203,436.446198 620.096375,440.227478 
	C630.581482,446.155426 636.873535,455.728668 640.237671,467.169525 
	C641.758118,472.340454 643.884033,477.062805 647.081177,481.468903 
	C655.269714,492.753387 657.028687,505.653564 655.054260,519.059753 
	C654.376526,523.661743 654.661011,527.979065 655.503052,532.385925 
	C657.957092,545.230164 655.596741,557.292664 649.075134,568.432861 
	C646.417542,572.972595 644.608765,577.625732 643.377869,582.682312 
	C640.518372,594.428833 634.409729,604.197571 624.404785,611.133057 
	C619.159180,614.769409 614.411255,618.768066 610.306824,623.681702 
	C602.493469,633.035400 592.285339,638.303833 580.283569,639.956726 
	C575.543518,640.609497 571.323547,642.292175 567.234070,644.640076 
	C556.519043,650.791931 544.953308,653.096252 533.119690,649.464478 
	C525.471436,647.117188 519.032288,650.635803 512.117004,651.604675 
	C503.915466,652.753662 496.169861,651.671265 488.583313,648.990540 
	C484.475311,647.538940 480.647583,647.224548 476.426361,648.399658 
	C464.395996,651.748657 452.417694,651.467651 440.595673,647.208862 
	C438.720825,646.533569 436.796265,645.738037 434.846069,645.573120 
	C424.319458,644.682861 418.660492,638.393066 415.146729,629.007446 
	C410.242218,615.907043 409.137299,602.802002 413.753510,589.455261 
	C414.948883,585.999023 414.994354,582.650024 413.929993,579.176514 
	C408.130524,560.249573 411.911041,543.041870 423.249603,527.154541 
	C427.601929,521.056152 431.817932,514.857605 435.965576,508.617950 
	C437.012451,507.043091 438.507202,505.434021 437.796387,503.231934 
	C436.495758,501.920197 435.234192,502.582855 434.101349,503.256775 
	C410.776855,517.131165 391.163818,534.530151 382.124420,561.062073 
	C374.228760,584.236938 376.616547,605.997803 393.142944,625.208374 
	C398.348511,631.259399 399.024658,632.984070 399.921478,638.445374 
	C396.477661,641.071167 393.286041,639.340637 390.394012,637.463623 
	C379.843903,630.616333 373.356415,620.496704 369.713043,608.861267 
	C360.396149,579.107361 367.725433,552.350769 385.885956,528.023621 
	C395.472656,515.181641 407.899567,505.373657 421.520996,496.449615 
M533.599121,461.222717 
	C510.503235,471.161133 486.284912,478.171356 463.225342,488.208069 
	C456.073395,491.320953 455.411102,492.272552 457.504425,499.440887 
	C461.058472,511.611023 460.994537,523.727966 457.261353,535.792542 
	C456.125122,539.464478 456.218628,542.887268 457.330261,546.531006 
	C460.467529,556.814270 460.686798,567.309753 457.452454,577.497009 
	C455.632446,583.229431 455.722717,588.265930 457.656738,593.877075 
	C461.000092,603.577332 460.724548,603.636414 471.163849,604.759338 
	C473.469879,605.007446 475.780334,605.468201 478.011383,606.102966 
	C481.808472,607.183228 485.507050,607.135193 489.313965,606.098206 
	C499.650330,603.282654 509.995239,603.153687 520.307007,606.335632 
	C523.112061,607.201355 525.865845,606.960693 528.614441,605.893799 
	C537.268127,602.534973 546.258728,601.143555 555.520874,601.567078 
	C558.464966,601.701599 561.168335,601.183716 563.449951,599.226135 
	C570.475098,593.198730 579.390259,590.095825 586.692932,584.860596 
	C593.987427,579.631165 596.199402,569.424622 602.632996,562.792297 
	C603.209961,562.197510 603.657837,561.479675 604.203186,560.851501 
	C605.683105,559.146851 606.550354,557.109070 606.541992,554.923950 
	C606.508850,546.284485 608.908020,538.157349 611.632019,530.112061 
	C612.768311,526.756287 612.602295,523.682556 611.242676,520.443298 
	C608.395386,513.659424 606.492615,506.568878 605.795593,499.254486 
	C605.411194,495.220825 604.041199,491.869690 601.320068,488.975891 
	C595.819153,483.126007 591.037170,476.745087 587.188599,469.687866 
	C585.672546,466.907959 583.432312,465.177155 580.410278,464.193573 
	C572.939819,461.762238 565.827271,458.504883 559.242615,454.201172 
	C556.609375,452.480072 554.148438,452.329254 551.280701,453.638489 
	C545.680237,456.195343 539.971252,458.514648 533.599121,461.222717 
M540.916016,360.457245 
	C545.574890,349.116302 548.133057,337.329437 548.655029,325.070312 
	C548.842896,320.659058 546.905579,319.393829 542.876221,320.373840 
	C536.716248,321.872040 530.754761,323.957184 524.922180,326.413788 
	C503.108032,335.601562 489.135620,351.324677 484.790375,374.931488 
	C484.256195,377.833557 483.184143,380.984253 485.814148,384.494812 
	C497.597443,368.576691 508.671600,352.437469 527.438782,343.984833 
	C528.882996,347.132050 527.488708,348.772797 526.389465,350.325867 
	C523.410034,354.535431 520.442932,358.770142 517.190613,362.766785 
	C509.614319,372.077057 502.340607,381.587128 496.476868,392.095612 
	C495.700806,393.486359 494.270233,395.014740 495.529327,396.654510 
	C496.794800,398.302612 498.547943,397.321472 500.136688,396.864990 
	C519.281860,391.364410 532.737976,379.423279 540.916016,360.457245 
M422.746338,608.032288 
	C423.970428,610.544922 425.176086,609.798828 426.238495,607.948425 
	C431.458710,598.856140 438.116760,590.664795 442.889374,581.290894 
	C445.632782,575.902649 447.856934,570.378784 447.665405,564.191711 
	C447.617310,562.638123 448.104034,560.701050 445.194031,560.105347 
	C439.585846,567.010132 434.222382,574.355896 429.704254,582.274109 
	C425.283203,590.022217 422.384308,598.281921 422.746338,608.032288 
M434.601532,403.126801 
	C440.175690,394.205963 445.354370,385.101715 447.240509,374.560089 
	C447.695129,372.019104 448.425110,369.363770 446.559387,366.985992 
	C435.196411,372.502075 420.016937,407.405701 424.836212,418.045776 
	C428.098938,413.056061 431.148376,408.392487 434.601532,403.126801 
M431.830200,306.344025 
	C427.360535,312.769897 424.359467,319.595825 426.091705,327.996735 
	C436.582306,312.813385 453.695648,304.131775 463.330475,288.193237 
	C451.382996,291.375580 440.576569,296.354950 431.830200,306.344025 
M441.220215,606.757935 
	C439.383881,609.715698 437.458771,612.622742 435.733887,615.644165 
	C433.600464,619.381226 431.325012,623.097839 431.152679,627.597290 
	C431.032410,630.738281 432.147888,633.224304 435.681915,632.406677 
	C446.013763,630.015991 454.428009,623.969666 463.361420,617.857239 
	C459.979340,615.082825 456.731506,616.056458 453.777435,616.206360 
	C449.333618,616.431946 447.367432,614.908997 447.580261,610.248108 
	C447.704315,607.531372 448.637207,604.244080 445.598450,602.265320 
	C443.299286,602.898621 442.773621,604.847229 441.220215,606.757935 
M629.181030,528.391479 
	C633.751526,535.830505 637.506958,543.699341 640.702942,552.377625 
	C649.919556,540.443176 634.520142,507.538513 618.942322,504.388885 
	C620.252686,513.151550 624.781555,520.352844 629.181030,528.391479 
M540.212402,251.272247 
	C545.385254,256.230042 550.602661,261.140198 556.653015,265.042664 
	C557.857300,265.819366 559.206726,267.109131 560.709045,265.941589 
	C562.329895,264.681976 561.165222,263.090668 560.513184,261.881775 
	C558.382812,257.931641 556.254150,253.956787 553.777222,250.222000 
	C547.612183,240.926254 539.000305,235.523132 527.743164,234.734177 
	C525.741272,234.593842 523.432617,233.871338 521.575684,236.684311 
	C527.969666,241.125183 534.055908,245.684921 540.212402,251.272247 
M605.096619,579.781799 
	C596.584412,593.085388 594.928711,609.018555 587.295349,622.472900 
	C590.316956,624.191467 591.664490,622.911316 592.997131,622.049072 
	C596.671936,619.671082 599.647522,616.647949 602.058350,612.911804 
	C608.118896,603.519592 609.133362,592.957336 609.414673,582.254578 
	C609.460266,580.520874 609.802856,576.230774 605.096619,579.781799 
M516.255188,248.223541 
	C500.841370,238.668045 483.120728,240.442749 476.446960,248.565659 
	C480.181427,250.693832 484.291870,249.477905 488.121887,250.005676 
	C499.405060,251.560608 509.839539,256.410065 521.056580,258.119781 
	C523.117920,258.433960 525.286011,259.366272 527.116089,256.928955 
	C524.838013,252.736603 520.443420,251.155258 516.255188,248.223541 
M557.703735,635.295227 
	C569.528259,629.174438 575.710815,618.398315 581.062256,606.947266 
	C581.636169,605.719299 582.113525,604.281006 580.816040,603.280884 
	C579.285583,602.101257 577.995300,603.290466 576.794434,604.145691 
	C564.056519,613.217041 556.058533,626.879456 543.429688,637.334900 
	C549.100220,638.840515 553.022339,636.983948 557.703735,635.295227 
M617.438660,319.838837 
	C614.012878,329.486694 608.047363,337.796326 603.317566,346.757233 
	C601.217529,350.735809 598.717346,354.735168 599.443848,360.343201 
	C606.814026,355.726349 612.091370,349.849823 616.828308,343.433563 
	C622.078979,336.321503 624.383179,328.326508 623.604553,319.496307 
	C623.408875,317.277405 623.493591,314.823059 620.737061,313.925720 
	C618.641541,315.223083 618.613037,317.423950 617.438660,319.838837 
M605.661255,475.106537 
	C611.097656,480.935211 639.591736,504.120117 642.001831,504.664856 
	C642.974304,503.493896 642.681274,502.136780 642.448730,500.849182 
	C640.150146,488.126892 619.516724,471.283691 606.453247,471.445038 
	C603.394165,471.482819 604.116882,472.974670 605.661255,475.106537 
M567.537415,430.880402 
	C569.221863,429.053345 567.663574,428.582672 566.341431,428.428101 
	C554.172058,427.005280 542.014343,424.682098 529.716064,426.515900 
	C525.622192,427.126343 521.249084,427.791077 517.681702,431.752502 
	C522.586121,434.351440 527.606323,434.295197 532.355469,435.144165 
	C544.285645,437.276855 556.115967,438.109253 567.537415,430.880402 
M493.892029,626.349060 
	C497.943939,623.653442 502.381378,621.472107 506.097504,617.873474 
	C497.341064,613.546204 466.671021,626.374023 457.670258,638.170959 
	C471.406891,638.654846 482.479797,633.159668 493.892029,626.349060 
M595.810547,401.689545 
	C582.105835,405.898163 566.784546,404.521881 553.868103,413.236115 
	C567.442505,422.014374 598.872314,413.525757 600.805237,401.039795 
	C599.291443,400.149567 597.946228,401.239044 595.810547,401.689545 
M513.789246,628.315979 
	C511.400635,630.052612 509.012024,631.789185 506.623383,633.525757 
	C516.383484,629.921204 524.567383,623.738892 533.084534,618.096924 
	C526.050293,619.848633 520.292480,624.031555 513.789246,628.315979 
M450.790283,271.173340 
	C457.478271,265.560852 465.908844,264.268372 474.892578,261.912140 
	C462.088013,261.199738 450.255371,266.779633 445.508423,275.238739 
	C447.076874,274.016510 448.645355,272.794281 450.790283,271.173340 
M440.654907,333.202362 
	C442.156372,331.158203 443.657867,329.114014 445.159363,327.069855 
	C435.599518,334.688110 425.574829,351.288940 424.882904,359.641327 
	C428.572632,349.947113 433.648743,341.406769 440.654907,333.202362 
M434.134521,429.350220 
	C434.437927,428.605438 434.741302,427.860626 435.044708,427.115845 
	C429.409912,434.082062 425.718689,441.897034 424.137817,450.642731 
	C426.491516,443.323090 430.173157,436.611481 434.134521,429.350220 
M601.289246,374.502625 
	C600.736450,374.871002 600.127686,375.179657 599.649597,375.627686 
	C599.304138,375.951385 598.355286,376.148712 599.202515,377.216766 
	C606.469360,372.655701 613.564331,367.996246 618.592651,360.850891 
	C613.448669,365.840302 607.831421,370.231262 601.289246,374.502625 
M590.885681,446.185059 
	C595.094971,446.618561 599.304199,447.052063 603.513489,447.485596 
	C596.002197,444.946869 593.059448,444.759155 590.885681,446.185059 
z"/>
<path fill="#000000" opacity="1.000000" stroke="none" 
	d="
M362.995850,767.402832 
	C356.004089,767.401978 349.507477,767.266663 343.020111,767.453003 
	C339.424194,767.556335 337.847473,766.247498 337.853912,762.589294 
	C337.887878,743.278015 337.859924,723.966370 337.765381,704.655273 
	C337.747681,701.044739 339.233826,699.607910 342.852692,699.654297 
	C352.506897,699.778076 362.165161,699.586182 371.819427,699.707275 
	C386.955170,699.897156 395.247162,713.568359 388.145630,726.986572 
	C386.006256,731.028870 385.572083,733.678162 388.931946,737.450928 
	C393.959961,743.096802 394.757782,750.134583 391.627319,757.096619 
	C388.472260,764.113403 381.992401,766.432007 374.972687,767.247192 
	C371.191742,767.686279 367.323639,767.375244 362.995850,767.402832 
M378.225677,748.877502 
	C378.248474,741.922607 375.946442,739.466980 369.186920,739.298523 
	C367.021820,739.244568 364.854431,739.279663 362.688080,739.280579 
	C351.950928,739.285156 351.747894,739.601440 352.324188,750.167725 
	C352.513397,753.636841 354.065308,754.886414 357.323730,754.814819 
	C361.487823,754.723145 365.656860,754.703186 369.820618,754.795654 
	C373.767944,754.883301 376.594849,753.406006 378.225677,748.877502 
M352.366791,720.453125 
	C351.817719,725.078064 353.688019,727.268250 358.516144,726.961792 
	C362.142853,726.731506 365.799377,727.002136 369.432343,726.830994 
	C373.323669,726.647705 375.534332,724.492432 375.687836,720.540833 
	C375.842468,716.559265 374.261200,713.700134 370.001526,713.195618 
	C366.560760,712.788147 363.083923,712.514404 359.621552,712.497498 
	C353.268585,712.466492 352.544067,713.273743 352.366791,720.453125 
z"/>
<path fill="#000000" opacity="1.000000" stroke="none" 
	d="
M488.575348,733.659790 
	C486.492065,729.572266 483.338470,728.702576 479.556305,729.698547 
	C475.154938,730.857605 471.578461,735.184937 471.429352,740.019531 
	C471.203552,747.340637 471.165070,754.677734 471.380981,761.998230 
	C471.502472,766.116760 470.001129,767.869568 465.888794,767.421814 
	C464.571991,767.278503 463.217590,767.296814 461.896088,767.415649 
	C458.261932,767.742371 456.799225,766.148560 456.811066,762.510681 
	C456.876129,742.526733 456.867126,722.542175 456.782440,702.558289 
	C456.766876,698.890076 458.314301,697.675049 461.897705,697.612488 
	C471.318756,697.448120 471.250275,697.317627 471.354553,706.640137 
	C471.405823,711.222595 470.867462,715.858704 471.762848,720.240356 
	C474.145538,721.150879 475.293457,719.566284 476.654633,718.798706 
	C488.314209,712.223511 503.212982,717.164795 503.771088,732.118896 
	C504.162567,742.608704 503.967224,753.076599 504.104980,763.553101 
	C504.140259,766.234558 502.752106,767.231628 500.070160,767.425354 
	C489.928650,768.157715 489.909454,768.050171 489.650879,757.873352 
	C489.448883,749.922974 490.727356,741.903992 488.575348,733.659790 
z"/>
<path fill="#000000" opacity="1.000000" stroke="none" 
	d="
M516.940430,759.981140 
	C509.220795,749.757690 508.318390,739.067505 514.342468,728.353394 
	C519.818970,718.613159 529.189209,715.076172 539.856750,716.116028 
	C556.158203,717.705139 565.590454,730.675598 563.209534,747.231567 
	C561.173157,761.391602 547.042542,770.772644 531.871216,768.046631 
	C526.138550,767.016602 521.051331,764.784241 516.940430,759.981140 
M542.550110,754.256714 
	C545.780273,752.347656 547.439575,749.294556 548.323486,745.839661 
	C550.749146,736.359131 543.598206,727.058533 535.280762,728.750000 
	C527.878418,730.255371 523.470642,738.328186 525.682922,746.328186 
	C527.817566,754.047424 534.103882,757.267578 542.550110,754.256714 
z"/>
<path fill="#000000" opacity="1.000000" stroke="none" 
	d="
M425.722687,715.930115 
	C451.142426,718.369385 455.407074,745.279358 445.280060,758.524475 
	C438.726715,767.095703 426.479126,770.729004 415.085083,767.140686 
	C404.670532,763.860718 397.789581,754.558655 397.626587,743.539246 
	C397.375397,726.553467 407.698334,716.235901 425.722687,715.930115 
M432.362518,751.830139 
	C437.130615,744.239746 436.713135,736.038635 431.325684,731.462891 
	C426.548462,727.405396 420.006500,727.755554 415.683411,732.300049 
	C410.960632,737.264709 410.897949,746.718140 415.552917,751.987061 
	C419.861816,756.864258 426.011414,757.015198 432.362518,751.830139 
z"/>
<path fill="#000000" opacity="1.000000" stroke="none" 
	d="
M847.285767,721.084167 
	C851.035278,722.294861 850.563721,719.605042 850.610718,717.788269 
	C850.744080,712.630798 850.753845,707.467346 850.673767,702.308411 
	C850.627686,699.336914 851.439636,697.632874 854.870728,697.636169 
	C858.346741,697.639526 859.097900,699.549072 859.100647,702.388794 
	C859.116699,719.035400 859.114380,735.682129 859.178650,752.328613 
	C859.188782,754.953735 858.870850,757.620789 860.267212,760.130432 
	C861.594849,762.516418 862.640320,765.622375 859.794922,767.155701 
	C856.947205,768.690186 853.946411,767.505371 852.225525,764.357239 
	C851.841125,763.653931 851.412903,762.974670 851.140442,762.513916 
	C849.623474,762.028320 848.965942,762.935669 848.161560,763.470215 
	C834.019165,772.868286 818.617920,767.920166 812.669617,751.961609 
	C809.151001,742.521606 810.561462,733.452942 816.185242,725.346680 
	C823.335510,715.040039 835.844788,713.453247 847.285767,721.084167 
M821.104492,750.274170 
	C821.925720,752.508850 823.344971,754.350220 824.972717,756.035645 
	C829.575134,760.801147 835.570801,762.463196 840.834473,760.007141 
	C846.764832,757.239929 851.003723,753.083740 850.682251,745.828186 
	C850.564514,743.170349 850.781982,740.495544 850.619568,737.842285 
	C849.945984,726.837036 836.908936,720.202942 827.685303,726.126587 
	C820.364502,730.828308 817.575134,740.309204 821.104492,750.274170 
z"/>
<path fill="#000000" opacity="1.000000" stroke="none" 
	d="
M228.701263,723.999878 
	C228.714752,716.506592 228.745544,709.513245 228.732208,702.520020 
	C228.726913,699.742798 229.185425,697.680847 232.768311,697.638489 
	C236.495773,697.594421 237.255676,699.580383 237.219696,702.672302 
	C237.161575,707.666809 237.162140,712.663513 237.254868,717.657166 
	C237.284164,719.234375 236.725174,721.008301 238.142273,722.325562 
	C239.779663,722.691772 240.613342,721.457092 241.632202,720.698853 
	C247.857758,716.065979 254.744629,714.761230 261.867310,717.766907 
	C268.928040,720.746460 270.847046,727.435852 271.161865,734.242676 
	C271.615265,744.046082 271.257690,753.885193 271.350555,763.708130 
	C271.377502,766.555603 270.120728,767.467712 267.409668,767.445068 
	C264.655121,767.421997 262.912445,766.739197 262.925446,763.581238 
	C262.954895,756.421997 262.885040,749.262268 262.858917,742.102783 
	C262.853455,740.604309 262.906738,739.104431 262.857147,737.607666 
	C262.566803,728.840820 258.777710,723.817322 252.382019,723.681213 
	C245.380569,723.532227 237.502838,731.068787 237.317719,738.432007 
	C237.116913,746.419678 237.220001,754.415649 237.240326,762.407837 
	C237.247757,765.332397 236.980667,767.641052 233.019730,767.559814 
	C229.310242,767.483643 228.667343,765.574280 228.685532,762.463745 
	C228.759491,749.809509 228.706863,737.154602 228.701263,723.999878 
z"/>
<path fill="#000000" opacity="1.000000" stroke="none" 
	d="
M665.227539,747.005981 
	C665.224976,752.337830 665.236877,757.171082 665.217346,762.004211 
	C665.206116,764.775391 665.211792,767.369080 661.187744,767.434814 
	C656.910522,767.504700 656.832153,764.796631 656.829956,761.803528 
	C656.824402,754.303772 656.831665,746.803955 656.797363,739.304321 
	C656.789001,737.473267 656.819702,735.613647 656.526489,733.817078 
	C655.082214,724.967163 646.861145,721.130554 639.330444,725.880188 
	C634.095703,729.181641 630.929016,733.725830 631.105469,740.318604 
	C631.301636,747.645813 631.111206,754.983276 631.100464,762.316284 
	C631.096130,765.285950 630.527466,767.431274 626.699463,767.435181 
	C622.631897,767.439392 622.660339,764.968750 622.661560,762.148254 
	C622.670349,742.315430 622.679504,722.482544 622.626953,702.649841 
	C622.618958,699.623596 623.054199,697.528625 626.905151,697.561829 
	C630.828125,697.595703 631.117859,699.948364 631.125366,702.825989 
	C631.138489,707.825562 631.096252,712.826843 631.213440,717.824219 
	C631.296570,721.365784 632.888916,722.425476 635.965515,720.246643 
	C638.453918,718.484314 641.188660,717.314087 644.161255,716.707886 
	C654.882446,714.521606 662.423645,719.780579 664.446167,730.563354 
	C665.441772,735.871033 665.126587,741.186401 665.227539,747.005981 
z"/>
<path fill="#000000" opacity="1.000000" stroke="none" 
	d="
M706.091064,734.761047 
	C710.668335,722.142212 719.621826,715.662170 731.300110,716.202271 
	C742.167969,716.704895 750.760254,723.651489 753.722168,734.368164 
	C754.029846,735.481445 754.239197,736.636047 754.356323,737.785522 
	C755.090210,744.987854 754.736633,745.370911 747.402710,745.377197 
	C738.245300,745.385010 729.086914,745.290710 719.930908,745.402527 
	C714.736145,745.465881 713.667725,747.366699 715.912415,751.959229 
	C721.254639,762.888977 734.696045,765.134827 742.878418,756.156128 
	C745.923096,752.815186 748.339966,753.340088 751.355774,755.424561 
	C749.274597,762.671387 741.871216,767.766602 732.890930,768.318054 
	C717.236511,769.279419 705.591614,758.345764 705.600525,742.640991 
	C705.601929,740.150757 705.833679,737.660706 706.091064,734.761047 
M736.387390,738.860107 
	C737.386230,738.854553 738.387573,738.892639 739.383301,738.834412 
	C741.488098,738.711426 744.020691,739.351379 745.209106,736.987488 
	C746.413330,734.592102 744.943787,732.457397 743.657715,730.515503 
	C740.000366,724.993225 734.782532,722.710754 728.238586,723.343323 
	C721.956421,723.950500 717.935181,727.615845 715.373840,733.080994 
	C713.536011,737.002319 714.548889,738.716187 718.937317,738.848694 
	C724.425476,739.014343 729.922974,738.872253 736.387390,738.860107 
z"/>
<path fill="#000000" opacity="1.000000" stroke="none" 
	d="
M290.178284,721.033813 
	C299.015656,715.226379 308.074554,714.668396 316.954468,719.331909 
	C325.088318,723.603699 328.794312,731.056641 329.370941,740.188843 
	C329.618713,744.112610 328.102325,745.483887 324.212311,745.407349 
	C314.902161,745.223938 305.585754,745.339661 296.272034,745.374329 
	C294.143677,745.382202 291.710602,745.023010 290.577454,747.457764 
	C289.457977,749.863159 290.670471,751.986816 291.978241,753.965271 
	C298.025269,763.113708 309.622650,764.464355 317.178101,756.582397 
	C320.037903,753.598999 322.517059,753.049866 325.752960,755.408936 
	C324.594238,762.224182 317.043091,767.639771 307.825470,768.296570 
	C296.486511,769.104492 286.640076,763.129578 282.336121,752.829407 
	C277.528320,741.323486 280.272217,729.845581 290.178284,721.033813 
M317.021088,728.513977 
	C307.635712,719.919312 294.641205,722.108154 290.238831,732.980042 
	C288.811615,736.504700 289.788605,738.640076 293.630768,738.720520 
	C301.267822,738.880493 308.914001,738.917297 316.549164,738.721924 
	C320.411041,738.623230 321.376770,736.256897 319.804565,732.885559 
	C319.179260,731.544739 318.275452,730.333740 317.021088,728.513977 
z"/>
<path fill="#000000" opacity="1.000000" stroke="none" 
	d="
M771.543701,725.566650 
	C770.024719,726.371765 768.862610,727.024353 767.673096,727.622375 
	C766.124878,728.400635 764.757935,728.269897 763.832886,726.638306 
	C762.973083,725.121704 762.255554,723.465820 764.061218,722.195312 
	C771.487000,716.969604 779.617554,714.509216 788.586548,717.091614 
	C796.661316,719.416626 800.676147,724.970825 801.612549,733.465271 
	C802.311340,739.804138 802.009888,746.094727 802.253662,752.402527 
	C802.362244,755.211121 802.117065,758.009766 803.619629,760.663757 
	C804.715149,762.598633 805.100403,765.168884 803.190674,766.631531 
	C801.253418,768.115234 798.475037,767.936035 796.715759,766.150696 
	C793.834351,763.226624 791.246582,764.138000 788.203003,765.710266 
	C782.319336,768.749634 776.121521,769.298096 769.821228,767.063110 
	C763.608459,764.859253 759.638733,759.081360 759.640503,752.473755 
	C759.642090,746.421631 763.412292,741.086426 769.617554,738.912292 
	C775.202271,736.955627 780.967896,736.633118 786.850281,737.583435 
	C789.034668,737.936340 791.714417,738.692139 793.088440,735.948486 
	C794.343811,733.441711 793.349243,731.071350 792.009155,728.875061 
	C788.317993,722.825745 781.079712,721.582642 771.543701,725.566650 
M768.798706,748.340942 
	C766.453735,752.305359 767.621094,755.712524 770.660095,758.626953 
	C777.314392,765.008484 791.387146,760.859497 793.385315,751.871216 
	C794.034424,748.951538 794.212341,745.912476 790.588074,744.251892 
	C784.724792,741.565430 773.849487,743.249573 768.798706,748.340942 
z"/>
<path fill="#000000" opacity="1.000000" stroke="none" 
	d="
M583.425354,711.935669 
	C582.297913,708.296570 579.821899,707.364258 576.728210,707.364258 
	C572.567871,707.364258 568.407410,707.289612 564.247314,707.314148 
	C561.350220,707.331238 560.613831,705.711548 560.644287,703.144043 
	C560.675049,700.549133 561.970764,699.612061 564.376587,699.613586 
	C580.020569,699.623657 595.664551,699.628540 611.308411,699.589417 
	C613.934814,699.582886 615.305847,700.517822 615.318115,703.360596 
	C615.329956,706.105103 614.192444,707.337891 611.472107,707.318787 
	C607.311951,707.289551 603.150452,707.298035 598.990967,707.370605 
	C593.481995,707.466675 592.173950,708.779480 592.146301,714.742798 
	C592.073792,730.386597 592.146301,746.031128 592.072266,761.674866 
	C592.061890,763.858948 592.632690,766.542480 589.354431,767.286682 
	C585.437073,768.176086 583.680603,766.755493 583.655701,762.271362 
	C583.563354,745.629639 583.548767,728.987488 583.425354,711.935669 
z"/>
<path fill="#000000" opacity="1.000000" stroke="none" 
	d="
M189.735870,728.000610 
	C189.730316,722.669067 189.595749,717.833008 189.758942,713.006958 
	C189.894775,708.989380 188.298386,707.163208 184.187363,707.308411 
	C179.861664,707.461365 175.525116,707.286072 171.193466,707.299622 
	C168.442459,707.308228 166.760986,706.374512 166.798599,703.251709 
	C166.834427,700.277954 168.549072,699.660156 171.027802,699.662842 
	C186.355820,699.679749 201.683914,699.677795 217.011932,699.653748 
	C219.522842,699.649780 221.163391,700.344788 221.180573,703.295166 
	C221.198563,706.383850 219.625290,707.414917 216.816177,707.334229 
	C214.985291,707.281555 213.151199,707.341980 211.318542,707.348206 
	C196.688004,707.397888 198.391922,705.975464 198.343323,720.574402 
	C198.297302,734.403015 198.350708,748.231934 198.294769,762.060425 
	C198.285767,764.288208 198.793243,766.928406 195.261154,767.313232 
	C191.565735,767.715942 189.658218,766.619812 189.710022,762.488281 
	C189.852127,751.160645 189.744537,739.829895 189.735870,728.000610 
z"/>
<path fill="#000000" opacity="1.000000" stroke="none" 
	d="
M683.808716,766.996704 
	C678.490173,768.307129 676.853943,766.199707 676.913269,761.399719 
	C677.069641,748.759949 676.854309,736.115967 676.923096,723.474365 
	C676.936218,721.055115 675.877380,717.895630 679.947144,717.193604 
	C683.854126,716.519653 684.826355,718.940369 685.438843,721.948730 
	C685.490967,722.204773 685.887329,722.390808 686.360352,722.828003 
	C689.820923,721.245667 692.580017,718.057861 696.578735,717.303650 
	C698.981201,716.850464 701.808411,715.606812 702.774719,719.140869 
	C703.678467,722.446045 702.177246,724.127930 698.630920,724.949829 
	C689.477966,727.071045 685.396118,732.631287 685.357849,742.149475 
	C685.331848,748.637024 685.377502,755.125000 685.316772,761.612122 
	C685.300049,763.389282 685.741516,765.317871 683.808716,766.996704 
z"/>
</svg>